
        <svg xmlns="http://www.w3.org/2000/svg" xmlns:xlink="http://www.w3.org/1999/xlink" version="1.1" width="3300" 
        height="3181.3014541284324" viewBox="0 0 3300 3181.3014541284324">
			
			<g transform="scale(15) translate(10, 10)">
				<defs id="SvgjsDefs1400"></defs><g id="SvgjsG1401" featureKey="V4V1qj-0" transform="matrix(1.7040556673092369,0,0,1.7040556673092369,57.27350581319573,7.51552845298561)" fill="#3fc1c9"><g xmlns="http://www.w3.org/2000/svg"><path d="M40.2,13.4c-0.4,0.4-0.8,0.9-1.1,0.9c-0.9,0-1.9-0.8-3.1-1.8c-2.1-1.7-5-4-9.6-4c-8.1,0-11.3,5.7-14.1,10.8   c-2.5,4.4-4.6,8.2-9.5,8.2c-0.7,0-1.2,0.6-1.2,1.2c0,0.7,0.6,1.2,1.2,1.2c6.3,0,9.1-4.8,11.7-9.5c2.7-4.9,5.3-9.5,11.9-9.5   c3.8,0,6,1.8,8,3.4c1.5,1.2,2.9,2.4,4.7,2.4c1.4,0,2.2-0.9,2.9-1.7c0.5-0.5,0.9-0.9,1.2-0.9c0.7,0,0.8,0.2,1.4,1.3   c0.4,0.8,0.9,1.8,1.9,2.6c0.5,0.4,1.3,0.3,1.8-0.2c0.4-0.5,0.3-1.3-0.2-1.8c-0.5-0.4-0.8-1-1.1-1.7c-0.2-0.5-0.6-1.1-1-1.7l0.2-0.5   c0.3-0.6-0.1-1.4-0.7-1.6c-0.6-0.3-1.4,0.1-1.6,0.7l-0.2,0.4c-0.1,0-0.2,0-0.3,0c-0.1,0-0.2,0-0.3,0l-0.8-1.3   C41.8,9.9,41,9.7,40.4,10c-0.6,0.4-0.8,1.1-0.4,1.7l0.7,1.1C40.5,13.1,40.4,13.2,40.2,13.4z"></path><path d="M17.3,35.9c0,2.2-1.5,3.4-1.5,3.4c-0.5,0.4-0.6,1.2-0.2,1.8c0.2,0.3,0.6,0.5,1,0.5c0.3,0,0.5-0.1,0.8-0.3   c0.1-0.1,2.5-2,2.5-5.4v-5.2c2.7-1,10.8-4.7,10.8-12.1c0-4-3.3-5.8-3.4-5.9c-0.6-0.3-1.4-0.1-1.7,0.5c-0.3,0.6-0.1,1.4,0.5,1.7   c0,0,2.1,1.1,2.1,3.6c0,3.6-2.8,6.2-5.4,7.8c1.1-2.6,0.7-4.8,0.7-4.9c-0.1-0.5-0.5-0.9-1-1c-0.2,0-2.2-0.5-2.2-3.7   c0-0.7-0.6-1.2-1.2-1.2c-0.7,0-1.2,0.6-1.2,1.2c0,3.5,1.8,5.2,3.3,5.8c0,1.2-0.4,3.8-3.3,6.1c0,0,0,0-0.1,0.1   c-0.1,0.1-0.2,0.2-0.2,0.3c0,0-0.1,0.1-0.1,0.1c0,0.1-0.1,0.2-0.1,0.3c0,0.1,0,0.1,0,0.2c0,0,0,0.1,0,0.1V35.9z"></path><path d="M34.8,26.8c0.6,0,1.1-0.4,1.2-0.9l1.2-4.9l2.1-0.5c0.7-0.2,1.1-0.8,0.9-1.5c-0.2-0.7-0.8-1.1-1.5-0.9l-2.8,0.7   c-0.4,0.1-0.8,0.5-0.9,0.9l-1.2,4.6H32c-0.7,0-1.2,0.6-1.2,1.2c0,0.7,0.6,1.2,1.2,1.2H34.8z"></path></g></g><g id="SvgjsG1402" featureKey="OL0P1Y-0" transform="matrix(6.036824435616537,0,0,6.036824435616537,-3.6220940856534805,52.79746560410905)" fill="#364f6b"><path d="M0.6 5.5 l2.98 0 l0 11.8 l2.92 0 l-0.5 2.7 l-5.4 0 l0 -14.5 z M8.45 5.5 l5.64 0 l0.5 2.7 l-3.16 0 l0 3.44 l2.4 0 l0 2.5 l-2.4 0 l0 3.16 l3.04 0 l-0.5 2.7 l-5.52 0 l0 -14.5 z M19.3 18.2 l-0.26 1.8 l-2.92 0 l2.62 -14.5 l3.1 0 l2.62 14.5 l-2.92 0 l-0.26 -1.8 l-1.98 0 z M19.62 15.9 l1.34 0 l-0.66 -5.14 z M29.19 8.04 l0 5.7 l1.44 0 c0.12 0 0.19666 -0.02334 0.23 -0.07 s0.05 -0.12332 0.05 -0.22998 l0 -5.12 c0 -0.18666 -0.08666 -0.28 -0.26 -0.28 l-1.46 0 z M32.01 5.5 c0.57334 0 1.0033 0.15998 1.29 0.47998 s0.43 0.74666 0.43 1.28 l0 6.94 c0 0.28 -0.03 0.53666 -0.09 0.77 s-0.17 0.43668 -0.33 0.61002 s-0.37334 0.31 -0.64 0.41 s-0.6 0.15 -1 0.15 l-2.48 0 l0 3.86 l-2.88 0 l0 -14.5 l5.7 0 z"></path></g><g id="SvgjsG1403" featureKey="KAJiUP-0" transform="matrix(0.5663024414711023,0,0,0.5663024414711023,12.000000135017023,180.68146734733574)" fill="#3fc1c9"><path d="M11.2 6 l0 4.2 l-2.8 0 l0 -1.4 l-1.4 0 l0 8.4 l1.4 0 l0 2.8 l-5.6 0 l0 -2.8 l1.4 0 l0 -8.4 l-1.4 0 l0 1.4 l-2.8 0 l0 -4.2 l11.2 0 z M26.424 17.2 l-0.000039062 2.8 l-5.6 0 l0 -2.8 l1.14 0 l-1.28 -2.24 l-2.52 0 l0 2.24 l1.4 0 l0 2.8 l-5.6 0 l0 -2.8 l1.4 0 l0 -8.4 l-1.4 0 l0 -2.8 l6.64 0 c0.61334 0.01334 1.1867 0.14 1.72 0.38 s1 0.56 1.4 0.96 s0.71666 0.87 0.95 1.41 s0.35 1.1167 0.35 1.73 c0 0.72 -0.15334 1.38 -0.46 1.98 s-0.71332 1.1067 -1.22 1.52 l1.86 3.22 l1.22 0 z M18.163999999999998 12.16 l2.38 -0.000039062 c0.46666 0 0.86332 -0.16334 1.19 -0.49 s0.49 -0.72332 0.49 -1.19 s-0.16334 -0.86332 -0.49 -1.19 s-0.72332 -0.49 -1.19 -0.49 l-2.38 0 l0 3.36 z M42.908 17.2 l0 2.8 l-5.6 0 l0 -2.8 l1.32 0 l-0.42 -1.4 l-4.32 0 l-0.42 1.4 l1.32 0 l0 2.8 l-5.6 0 l0 -2.8 l1.36 0 l3.36 -11.2 l4.28 0 l3.36 11.2 l1.36 0 z M37.367999999999995 13 l-1.26 -4.2 l-0.12 0 l-1.26 4.2 l2.64 0 z M59.532 6 l0 2.8 l-1.4 0 l0 11.2 l-2.8 0 l-5.46 -8.72 l0 5.92 l1.4 0 l0 2.8 l-5.6 0 l0 -2.8 l1.4 0 l0 -8.4 l-1.4 0 l0 -2.8 l4.2 0 l5.46 8.72 l0 -5.92 l-1.4 0 l0 -2.8 l5.6 0 z M67.776 11.64 c1.16 0.17334 2.0834 0.4566 2.77 0.84994 s1.21 0.82 1.57 1.28 s0.59 0.91334 0.69 1.36 s0.15 0.81 0.15 1.09 c0 0.56 -0.11666 1.08 -0.35 1.56 s-0.55334 0.89334 -0.96 1.24 s-0.88666 0.62 -1.44 0.82 s-1.1567 0.3 -1.81 0.3 c-0.68 0 -1.29 -0.07 -1.83 -0.21 s-1.0233 -0.32334 -1.45 -0.55 l0 0.62 l-2.8 0 l0 -4.2 l2.8 0 c0.24 0.26666 0.47666 0.49666 0.71 0.69 s0.47334 0.35334 0.72 0.48 s0.52 0.22 0.82 0.28 s0.64334 0.09 1.03 0.09 c0.50666 0 0.92666 -0.10334 1.26 -0.31 s0.5 -0.47666 0.5 -0.81 c0 -0.28 -0.08666 -0.52334 -0.26 -0.73 s-0.39668 -0.38332 -0.67002 -0.52998 s-0.57334 -0.26332 -0.9 -0.34998 s-0.65 -0.15666 -0.97 -0.21 c-1.1333 -0.17334 -2.04 -0.44 -2.72 -0.8 s-1.2033 -0.75334 -1.57 -1.18 s-0.60666 -0.86332 -0.72 -1.31 s-0.17 -0.84332 -0.17 -1.19 c0 -0.57334 0.11666 -1.1067 0.35 -1.6 s0.55668 -0.92334 0.97002 -1.29 s0.89334 -0.65332 1.44 -0.85998 s1.14 -0.31 1.78 -0.31 c0.68 0 1.2733 0.06666 1.78 0.2 s0.96666 0.31334 1.38 0.54 l0 -0.6 l2.8 0 l0 4.2 l-2.82 0 c-0.22666 -0.25334 -0.44666 -0.47668 -0.66 -0.67002 s-0.44 -0.35334 -0.68 -0.48 s-0.50334 -0.22332 -0.79 -0.28998 s-0.62332 -0.1 -1.01 -0.1 c-0.56 0 -0.99 0.13334 -1.29 0.4 s-0.45 0.55332 -0.45 0.85998 c0 0.86666 0.93334 1.44 2.8 1.72 z M85.42 6 l0 4.2 l-2.8 0 l0 -1.4 l-2.8 0 l0 2.8 l2.8 0 l0 2.8 l-2.8 0 l0 2.8 l1.4 0 l0 2.8 l-5.6 0 l0 -2.8 l1.4 0 l0 -8.4 l-1.4 0 l0 -2.8 l9.8 0 z M95.20400000000001 6 c0.57334 0 1.1167 0.11 1.63 0.33 s0.96 0.52 1.34 0.9 s0.68 0.82666 0.9 1.34 s0.33 1.0567 0.33 1.63 l0 5.6 c0 0.58666 -0.11 1.1333 -0.33 1.64 s-0.52 0.95 -0.9 1.33 s-0.82666 0.68 -1.34 0.9 s-1.0567 0.33 -1.63 0.33 l-2.8 0 c-0.58666 0 -1.1333 -0.11 -1.64 -0.33 s-0.95 -0.52 -1.33 -0.9 s-0.68 -0.82334 -0.9 -1.33 s-0.33 -1.0533 -0.33 -1.64 l0 -5.6 c0 -0.57334 0.11 -1.1167 0.33 -1.63 s0.52 -0.96 0.9 -1.34 s0.82334 -0.68 1.33 -0.9 s1.0533 -0.33 1.64 -0.33 l2.8 0 z M96.60400000000001 10.2 c0 -0.38666 -0.13666 -0.71666 -0.41 -0.99 s-0.60334 -0.41 -0.99 -0.41 l-2.8 0 c-0.38666 0 -0.71666 0.13666 -0.99 0.41 s-0.41 0.60334 -0.41 0.99 l0 5.6 c0 0.38666 0.13666 0.71666 0.41 0.99 s0.60334 0.41 0.99 0.41 l2.8 0 c0.38666 0 0.71666 -0.13666 0.99 -0.41 s0.41 -0.60334 0.41 -0.99 l0 -5.6 z M114.62800000000001 17.2 l-0.000039062 2.8 l-5.6 0 l0 -2.8 l1.14 0 l-1.28 -2.24 l-2.52 0 l0 2.24 l1.4 0 l0 2.8 l-5.6 0 l0 -2.8 l1.4 0 l0 -8.4 l-1.4 0 l0 -2.8 l6.64 0 c0.61334 0.01334 1.1867 0.14 1.72 0.38 s1 0.56 1.4 0.96 s0.71666 0.87 0.95 1.41 s0.35 1.1167 0.35 1.73 c0 0.72 -0.15334 1.38 -0.46 1.98 s-0.71332 1.1067 -1.22 1.52 l1.86 3.22 l1.22 0 z M106.36800000000001 12.16 l2.38 -0.000039062 c0.46666 0 0.86332 -0.16334 1.19 -0.49 s0.49 -0.72332 0.49 -1.19 s-0.16334 -0.86332 -0.49 -1.19 s-0.72332 -0.49 -1.19 -0.49 l-2.38 0 l0 3.36 z M131.392 6 l0 2.8 l-1.4 0 l0 8.4 l1.4 0 l0 2.8 l-5.6 0 l0 -2.8 l1.4 0 l0 -6 l-2.8 4.42 l-2.8 -4.42 l0 6 l1.4 0 l0 2.8 l-5.6 0 l0 -2.8 l1.4 0 l0 -8.4 l-1.4 0 l0 -2.8 l4.24 0 l2.76 4.38 l2.76 -4.38 l4.24 0 z M147.876 17.2 l0 2.8 l-5.6 0 l0 -2.8 l1.32 0 l-0.42 -1.4 l-4.32 0 l-0.42 1.4 l1.32 0 l0 2.8 l-5.6 0 l0 -2.8 l1.36 0 l3.36 -11.2 l4.28 0 l3.36 11.2 l1.36 0 z M142.336 13 l-1.26 -4.2 l-0.12 0 l-1.26 4.2 l2.64 0 z M159.44 6 l0 4.2 l-2.8 0 l0 -1.4 l-1.4 0 l0 8.4 l1.4 0 l0 2.8 l-5.6 0 l0 -2.8 l1.4 0 l0 -8.4 l-1.4 0 l0 1.4 l-2.8 0 l0 -4.2 l11.2 0 z M166.404 17.2 l1.4 0 l0 2.8 l-5.6 0 l0 -2.8 l1.4 0 l0 -8.4 l-1.4 0 l0 -2.8 l5.6 0 l0 2.8 l-1.4 0 l0 8.4 z M177.58800000000002 6 c0.57334 0 1.1167 0.11 1.63 0.33 s0.96 0.52 1.34 0.9 s0.68 0.82666 0.9 1.34 s0.33 1.0567 0.33 1.63 l0 5.6 c0 0.58666 -0.11 1.1333 -0.33 1.64 s-0.52 0.95 -0.9 1.33 s-0.82666 0.68 -1.34 0.9 s-1.0567 0.33 -1.63 0.33 l-2.8 0 c-0.58666 0 -1.1333 -0.11 -1.64 -0.33 s-0.95 -0.52 -1.33 -0.9 s-0.68 -0.82334 -0.9 -1.33 s-0.33 -1.0533 -0.33 -1.64 l0 -5.6 c0 -0.57334 0.11 -1.1167 0.33 -1.63 s0.52 -0.96 0.9 -1.34 s0.82334 -0.68 1.33 -0.9 s1.0533 -0.33 1.64 -0.33 l2.8 0 z M178.98800000000003 10.2 c0 -0.38666 -0.13666 -0.71666 -0.41 -0.99 s-0.60334 -0.41 -0.99 -0.41 l-2.8 0 c-0.38666 0 -0.71666 0.13666 -0.99 0.41 s-0.41 0.60334 -0.41 0.99 l0 5.6 c0 0.38666 0.13666 0.71666 0.41 0.99 s0.60334 0.41 0.99 0.41 l2.8 0 c0.38666 0 0.71666 -0.13666 0.99 -0.41 s0.41 -0.60334 0.41 -0.99 l0 -5.6 z M198.41200000000003 6 l0 2.8 l-1.4 0 l0 11.2 l-2.8 0 l-5.46 -8.72 l0 5.92 l1.4 0 l0 2.8 l-5.6 0 l0 -2.8 l1.4 0 l0 -8.4 l-1.4 0 l0 -2.8 l4.2 0 l5.46 8.72 l0 -5.92 l-1.4 0 l0 -2.8 l5.6 0 z M215.04000000000005 11.64 c1.16 0.17334 2.0834 0.4566 2.77 0.84994 s1.21 0.82 1.57 1.28 s0.59 0.91334 0.69 1.36 s0.15 0.81 0.15 1.09 c0 0.56 -0.11666 1.08 -0.35 1.56 s-0.55334 0.89334 -0.96 1.24 s-0.88666 0.62 -1.44 0.82 s-1.1567 0.3 -1.81 0.3 c-0.68 0 -1.29 -0.07 -1.83 -0.21 s-1.0233 -0.32334 -1.45 -0.55 l0 0.62 l-2.8 0 l0 -4.2 l2.8 0 c0.24 0.26666 0.47666 0.49666 0.71 0.69 s0.47334 0.35334 0.72 0.48 s0.52 0.22 0.82 0.28 s0.64334 0.09 1.03 0.09 c0.50666 0 0.92666 -0.10334 1.26 -0.31 s0.5 -0.47666 0.5 -0.81 c0 -0.28 -0.08666 -0.52334 -0.26 -0.73 s-0.39668 -0.38332 -0.67002 -0.52998 s-0.57334 -0.26332 -0.9 -0.34998 s-0.65 -0.15666 -0.97 -0.21 c-1.1333 -0.17334 -2.04 -0.44 -2.72 -0.8 s-1.2033 -0.75334 -1.57 -1.18 s-0.60666 -0.86332 -0.72 -1.31 s-0.17 -0.84332 -0.17 -1.19 c0 -0.57334 0.11666 -1.1067 0.35 -1.6 s0.55668 -0.92334 0.97002 -1.29 s0.89334 -0.65332 1.44 -0.85998 s1.14 -0.31 1.78 -0.31 c0.68 0 1.2733 0.06666 1.78 0.2 s0.96666 0.31334 1.38 0.54 l0 -0.6 l2.8 0 l0 4.2 l-2.82 0 c-0.22666 -0.25334 -0.44666 -0.47668 -0.66 -0.67002 s-0.44 -0.35334 -0.68 -0.48 s-0.50334 -0.22332 -0.79 -0.28998 s-0.62332 -0.1 -1.01 -0.1 c-0.56 0 -0.99 0.13334 -1.29 0.4 s-0.45 0.55332 -0.45 0.85998 c0 0.86666 0.93334 1.44 2.8 1.72 z M232.68400000000005 6 l0 4.2 l-2.8 0 l0 -1.4 l-2.8 0 l0 2.8 l2.8 0 l0 2.8 l-2.8 0 l0 2.8 l2.8 0 l0 -1.4 l2.8 0 l0 4.2 l-9.8 0 l0 -2.8 l1.4 0 l0 -8.4 l-1.4 0 l0 -2.8 l9.8 0 z M247.92800000000005 17.2 l-0.000039062 2.8 l-5.6 0 l0 -2.8 l1.14 0 l-1.28 -2.24 l-2.52 0 l0 2.24 l1.4 0 l0 2.8 l-5.6 0 l0 -2.8 l1.4 0 l0 -8.4 l-1.4 0 l0 -2.8 l6.64 0 c0.61334 0.01334 1.1867 0.14 1.72 0.38 s1 0.56 1.4 0.96 s0.71666 0.87 0.95 1.41 s0.35 1.1167 0.35 1.73 c0 0.72 -0.15334 1.38 -0.46 1.98 s-0.71332 1.1067 -1.22 1.52 l1.86 3.22 l1.22 0 z M239.66800000000003 12.16 l2.38 -0.000039062 c0.46666 0 0.86332 -0.16334 1.19 -0.49 s0.49 -0.72332 0.49 -1.19 s-0.16334 -0.86332 -0.49 -1.19 s-0.72332 -0.49 -1.19 -0.49 l-2.38 0 l0 3.36 z M250.73200000000003 8.8 l-1.34 0 l0 -2.8 l5.6 0 l0 2.8 l-1.32 0 l2.3 7.1 l2.3 -7.1 l-1.32 0 l0 -2.8 l5.6 0 l0 2.8 l-1.34 0 l-3.64 11.2 l-3.2 0 z M269.536 17.2 l1.4 0 l0 2.8 l-5.6 0 l0 -2.8 l1.4 0 l0 -8.4 l-1.4 0 l0 -2.8 l5.6 0 l0 2.8 l-1.4 0 l0 8.4 z M282.12 10.9 l0 -0.7 c0 -0.38666 -0.13666 -0.71666 -0.41 -0.99 s-0.60334 -0.41 -0.99 -0.41 l-2.8 0 c-0.38666 0 -0.71666 0.13666 -0.99 0.41 s-0.41 0.60334 -0.41 0.99 l0 5.6 c0 0.38666 0.13666 0.71666 0.41 0.99 s0.60334 0.41 0.99 0.41 l2.8 0 c0.38666 0 0.71666 -0.13666 0.99 -0.41 s0.41 -0.60334 0.41 -0.99 l0 -0.7 l2.8 0 l0 0.7 c0 0.58666 -0.11 1.1333 -0.33 1.64 s-0.52 0.95 -0.9 1.33 s-0.82666 0.68 -1.34 0.9 s-1.0567 0.33 -1.63 0.33 l-2.8 0 c-0.58666 0 -1.1333 -0.11 -1.64 -0.33 s-0.95 -0.52 -1.33 -0.9 s-0.68 -0.82334 -0.9 -1.33 s-0.33 -1.0533 -0.33 -1.64 l0 -5.6 c0 -0.57334 0.11 -1.1167 0.33 -1.63 s0.52 -0.96 0.9 -1.34 s0.82334 -0.68 1.33 -0.9 s1.0533 -0.33 1.64 -0.33 l2.8 0 c0.57334 0 1.1167 0.11 1.63 0.33 s0.96 0.52 1.34 0.9 s0.68 0.82666 0.9 1.34 s0.33 1.0567 0.33 1.63 l0 0.7 l-2.8 0 z M297.36400000000003 6 l0 4.2 l-2.8 0 l0 -1.4 l-2.8 0 l0 2.8 l2.8 0 l0 2.8 l-2.8 0 l0 2.8 l2.8 0 l0 -1.4 l2.8 0 l0 4.2 l-9.8 0 l0 -2.8 l1.4 0 l0 -8.4 l-1.4 0 l0 -2.8 l9.8 0 z M305.608 11.64 c1.16 0.17334 2.0834 0.4566 2.77 0.84994 s1.21 0.82 1.57 1.28 s0.59 0.91334 0.69 1.36 s0.15 0.81 0.15 1.09 c0 0.56 -0.11666 1.08 -0.35 1.56 s-0.55334 0.89334 -0.96 1.24 s-0.88666 0.62 -1.44 0.82 s-1.1567 0.3 -1.81 0.3 c-0.68 0 -1.29 -0.07 -1.83 -0.21 s-1.0233 -0.32334 -1.45 -0.55 l0 0.62 l-2.8 0 l0 -4.2 l2.8 0 c0.24 0.26666 0.47666 0.49666 0.71 0.69 s0.47334 0.35334 0.72 0.48 s0.52 0.22 0.82 0.28 s0.64334 0.09 1.03 0.09 c0.50666 0 0.92666 -0.10334 1.26 -0.31 s0.5 -0.47666 0.5 -0.81 c0 -0.28 -0.08666 -0.52334 -0.26 -0.73 s-0.39668 -0.38332 -0.67002 -0.52998 s-0.57334 -0.26332 -0.9 -0.34998 s-0.65 -0.15666 -0.97 -0.21 c-1.1333 -0.17334 -2.04 -0.44 -2.72 -0.8 s-1.2033 -0.75334 -1.57 -1.18 s-0.60666 -0.86332 -0.72 -1.31 s-0.17 -0.84332 -0.17 -1.19 c0 -0.57334 0.11666 -1.1067 0.35 -1.6 s0.55668 -0.92334 0.97002 -1.29 s0.89334 -0.65332 1.44 -0.85998 s1.14 -0.31 1.78 -0.31 c0.68 0 1.2733 0.06666 1.78 0.2 s0.96666 0.31334 1.38 0.54 l0 -0.6 l2.8 0 l0 4.2 l-2.82 0 c-0.22666 -0.25334 -0.44666 -0.47668 -0.66 -0.67002 s-0.44 -0.35334 -0.68 -0.48 s-0.50334 -0.22332 -0.79 -0.28998 s-0.62332 -0.1 -1.01 -0.1 c-0.56 0 -0.99 0.13334 -1.29 0.4 s-0.45 0.55332 -0.45 0.85998 c0 0.86666 0.93334 1.44 2.8 1.72 z"></path></g>
			</g>
		</svg>
	