<?xml version="1.0" encoding="UTF-8"?><svg version="1.1" width="180px" height="38px" viewBox="0 0 180.0 38.0" xmlns="http://www.w3.org/2000/svg" xmlns:xlink="http://www.w3.org/1999/xlink"><defs><clipPath id="i0"><path d="M180,0 L180,38 L0,38 L0,0 L180,0 Z"></path></clipPath><clipPath id="i1"><path d="M180,33.524877 L180,37.376877 L0,37.376877 L0,33.524877 L180,33.524877 Z M51.0113,34.456177 L27.0085,34.456177 L27.0085,36.445677 L51.0113,36.445677 L51.0113,34.456177 Z M101.98,34.456177 L77.9774,34.456177 L77.9774,36.445677 L101.98,36.445677 L101.98,34.456177 Z M152.992,34.456177 L128.989,34.456177 L128.989,36.445677 L152.992,36.445677 L152.992,34.456177 Z M120.014,0 C123.358,0 124.967,0.550285 126.66,1.058237 C127.803,1.396877 128.015,1.735517 128.015,2.285797 L128.015,7.323027 L127.549,7.323027 C127.422,4.486937 125.729,0.634945 119.717,0.634945 C113.198,0.634945 110.108,5.333527 110.065,11.005677 C110.023,17.270477 113.367,22.138377 120.437,22.138377 C125.178,22.138377 127.464,18.625077 128.734,15.831277 L129.2,15.831277 L127.972,20.741477 C127.972,21.418777 127.337,21.545777 126.364,21.842077 C125.051,22.223077 122.596,22.773377 119.59,22.773377 C112.478,22.773377 106.086,19.683277 106.171,11.259677 C106.171,6.434097 110.7,0 120.014,0 Z M27.4316,0 C30.240812,0 31.8253846,0.388281096 33.2641577,0.813596229 L33.6722004,0.935819147 C33.8075134,0.976693749 33.942436,1.01760084 34.0779,1.058237 C35.2209,1.396877 35.4326,1.735517 35.4326,2.285797 L35.4326,7.323027 L34.9669,7.323027 C34.8399,4.486937 33.1466,0.634945 27.1353,0.634945 C20.616,0.634945 17.5257,5.333527 17.4834,11.005677 C17.441,17.270477 20.7853,22.138377 27.8549,22.138377 C32.5962,22.138377 34.8822,18.625077 36.1522,15.831277 L36.6179,15.831277 L35.3902,20.741477 C35.3902,21.418777 34.7552,21.545777 33.7816,21.842077 C32.4692,22.223077 30.0139,22.773377 27.0083,22.773377 C19.9387,22.773377 13.5041,19.683277 13.5887,11.259677 C13.5887,6.434097 18.1184,0 27.4316,0 Z M141.561,10.497877 C142.281,3.725107 148.589,-0.634846 155.743,0.084758 C163.193,0.846687 166.961,7.153807 166.453,11.979377 C165.776,18.582777 159.764,23.408377 152.145,22.646477 C145.541,21.969177 140.926,16.593277 141.561,10.497877 Z M61.2559,0.338868 L61.2559,0.846827 C58.1656,1.185457 57.0649,0.677504 57.0649,3.598247 L57.0649,19.175577 C57.0649,22.096277 58.1232,21.588377 61.2559,21.926977 L61.2559,22.392577 L49.4873,22.392577 L49.4873,21.884677 C52.5776,21.545977 53.6783,22.053977 53.6783,19.133177 L53.6783,3.598247 C53.6783,0.677504 52.6199,1.185457 49.4873,0.846827 L49.4873,0.338868 L61.2559,0.338868 Z M94.3597,0.338868 L95.7567,5.503077 L95.3333,5.503077 C94.1903,3.428927 92.751,1.016137 89.7454,1.016137 L86.4011,1.016137 L86.4011,19.133177 C86.4011,22.053977 87.3747,21.545977 90.5074,21.884677 L90.5074,22.392577 L78.9081,22.392577 L78.9081,21.884677 C81.9984,21.545977 83.0144,22.053977 83.0144,19.133177 L83.0144,1.016137 L79.6701,1.016137 C76.6645,1.016137 75.2675,3.428927 74.1245,5.503077 L73.7012,5.503077 L75.0982,0.338868 L94.3597,0.338868 Z M154.854,0.677372 C149.012,0.042428 146.049,5.037327 145.625,9.270287 C144.863,16.889577 148.673,21.630577 153.118,22.096177 C159.553,22.773477 161.966,16.720277 162.389,12.529677 C163.151,5.037327 159.045,1.100667 154.854,0.677372 Z"></path></clipPath></defs><g clip-path="url(#i0)"><g clip-path="url(#i0)"><g transform="translate(0.0 0.6200000000000045)"><g clip-path="url(#i1)"><polygon points="0,0 180,0 180,37.376877 0,37.376877 0,0" stroke="none" fill="#FFFFFF"></polygon></g></g></g></g></svg>