<svg version="1.1" id="Layer_1" xmlns:x="ns_extend;" xmlns:i="ns_ai;" xmlns:graph="ns_graphs;" xmlns="http://www.w3.org/2000/svg" xmlns:xlink="http://www.w3.org/1999/xlink" x="0px" y="0px" viewBox="0 0 1266.3 188.4" style="enable-background:new 0 0 1266.3 188.4;" xml:space="preserve">
 <style type="text/css">
  .st0{fill:#082538;}
	.st1{fill:url(#Rectangle_1_);}
	.st2{fill:url(#Combined-Shape_9_);}
	.st3{fill:url(#Path-2_1_);}
	.st4{fill:url(#Combined-Shape_10_);}
 </style>
 <metadata>
  <sfw xmlns="ns_sfw;">
   <slices>
   </slices>
   <sliceSourceBounds bottomLeftOrigin="true" height="188.4" width="1266.3" x="0" y="0">
   </sliceSourceBounds>
  </sfw>
 </metadata>
 <desc>
  Created with Sketch.
 </desc>
 <g id="Page-1">
  <g id="FI-logos-351-400">
   <g id="First-Citizens-Bank">
    <g id="Group-2" transform="translate(37.459628, 15.534728)">
     <path id="Path" class="st0" d="M1228.8,170.8h-26.6c-3.3-6.6-6.3-12.3-9-16.9c-2.7-4.6-5.3-9.8-7.7-13.8l-3.4,3.3v15.1
					c0,1.6,0.2,2.8,0.6,3.8c0.4,1,1.2,1.7,2.3,2.2c0.7,0.3,1.5,0.7,2.4,0.9c0.9,0.3,1.8,0.4,2.7,0.5v4.7h-34.9V166
					c0.9-0.1,1.9-0.2,2.8-0.4s1.8-0.4,2.5-0.6c1.2-0.5,2-1.2,2.5-2.2c0.4-1,0.6-2.3,0.6-3.9v-69c0-1.4-0.3-2.9-0.8-4.5
					c-0.5-1.5-1.3-2.7-2.4-3.5c-0.7-0.5-1.8-1-3.2-1.3c-1.4-0.3-2.7-0.6-3.9-0.7v-4.7l28.9-5.1v67.1c2.8-2.9,5.9-5.3,9.4-9
					c3.5-3.8,6.3-6.9,8.4-9.4c1.2-1.5,1.9-2.6,2.1-3.4c0.2-0.8,0.2-1.2,0.2-1.4c0-0.8-0.6-1.4-1.8-2c-1.2-0.5-4.8-1-7.2-1.4
					c0-0.9,0-1.4,0-1.5c0-0.9,0-2.3,0-4.1h32.7v4.5c-3.8,1.2-8.8,2.4-10.8,3.4c-2,1.1-4.1,2.5-6.5,4.3c-1.5,1.2-3,2.4-4.5,3.7
					s-4.8,6-6.7,7.9c3.7,6.2,18.3,25.7,21.8,31.6c1.2,2,2.6,3.4,4.3,4.1c1.7,0.7,3.5,1.1,5.2,1.3V170.8L1228.8,170.8z">
     </path>
     <path id="Combined-Shape" class="st0" d="M781.1,136.6l-26.1,0.1c-4.5,0-7.8,0-10,0.1s-4.3,0.2-6.1,0.4c0,7.6,1.8,13.6,5.5,18
					c3.7,4.4,8.8,6.5,15.3,6.5c3.1,0,6.2-0.5,9.3-1.5c3.1-1,6.2-2.5,9.3-4.6l2.8,5.5c-4.8,3.9-9.6,6.9-14.3,8.8s-9.3,2.9-13.9,2.9
					c-8.7,0-15.9-3-21.4-8.9c-5.6-6-8.4-13.6-8.4-23c0-10.2,3-18.6,9.1-25.5c6-6.8,13.5-10.2,22.3-10.2c7.9,0,14.3,2.8,19.1,8.5
					C778.4,119.5,780.9,127.1,781.1,136.6z M766.2,128.8c-0.9-5-2.5-8.9-4.8-11.7c-2.3-2.8-5.1-4.2-8.3-4.2c-3.8,0-7,1.5-9.5,4.5
					s-4.1,7.3-4.7,12.7h3.9c5.1,0,9.6-0.1,13.4-0.4C760.1,129.6,763.4,129.2,766.2,128.8z">
     </path>
     <path id="Combined-Shape_1_" class="st0" d="M992.8,128.4c2.4,1.9,4.4,4.3,5.9,7.2c1.5,2.9,2.3,6.3,2.3,10.2
					c0,4.7-0.9,8.7-2.6,11.9c-1.7,3.2-4.2,5.8-7.4,7.7c-3.4,2-7.3,3.4-11.7,4.2s-9.6,1.2-15.6,1.2h-41.6v-5.1
					c1.2-0.1,2.6-0.3,4.4-0.6s3-0.6,3.7-0.9c1.4-0.7,2.3-1.5,2.9-2.6c0.5-1.1,0.8-2.4,0.8-4.1V92.3c0-1.6-0.2-2.9-0.6-3.9
					s-1.4-2-3-2.7c-1.2-0.6-2.5-1-4.1-1.4c-1.6-0.4-2.9-0.7-4.1-0.9v-5.1h43.5c11,0,18.9,1.7,23.7,5.2c4.9,3.5,7.3,8.6,7.3,15.4
					c0,3.1-0.5,5.9-1.6,8.2c-1.1,2.4-2.7,4.4-4.7,6.2c-1.8,1.6-4,3-6.6,4.2c-2.6,1.2-5.3,2.2-8.2,2.9v1.2c2.9,0.3,6,1.1,9.1,2.2
					C987.7,125,990.5,126.5,992.8,128.4z M974.6,100.5c0-5.1-1.3-9.1-3.8-12s-6.3-4.3-11.3-4.3c-0.7,0-1.6,0-2.8,0.1
					c-1.1,0.1-2.1,0.1-3,0.2v34.3h3.1c6.1,0,10.6-1.6,13.5-4.9C973.2,110.6,974.6,106.1,974.6,100.5z M978.6,144.9
					c0-6.4-1.7-11.4-5-14.8s-8.1-5.1-14.3-5.1c-0.7,0-1.7,0-2.9,0.1c-1.2,0.1-2.1,0.1-2.6,0.2v33.8c0.3,1.6,1.4,3,3.2,4.1
					s3.9,1.7,6.4,1.7c4.5,0,8.1-1.7,10.9-5.2S978.6,151.2,978.6,144.9z">
     </path>
     <path id="Combined-Shape_2_" class="st0" d="M1068.1,169.5c-1.7,0.8-3.6,1.6-5.9,2.2c-2.3,0.7-4.6,1-7.2,1
					c-4.6,0-8-0.8-10.2-2.3c-2.2-1.6-3.7-3.8-4.5-6.7h-0.3c-1.3,1.5-2.5,2.7-3.7,3.7c-1.2,1-2.5,1.9-3.8,2.6
					c-1.8,0.9-3.5,1.6-5.1,2.1c-1.6,0.4-3.9,0.7-6.9,0.7c-4.4,0-8.1-1.5-11.2-4.4c-3.1-2.9-4.6-6.8-4.6-11.7c0-2.8,0.3-5.1,1-7.1
					s1.6-3.7,2.9-5.2c1.1-1.4,2.4-2.5,3.9-3.4s3.1-1.7,4.9-2.5c3.4-1.4,7.5-2.9,12.2-4.4c4.7-1.5,8.2-2.9,10.4-4.1v-6
					c0-1.1-0.1-2.5-0.2-4.2c-0.2-1.8-0.5-3.2-1-4.4c-0.5-1.4-1.4-2.5-2.5-3.5c-1.1-0.9-2.6-1.4-4.5-1.4c-1.7,0-3,0.3-4.1,0.8
					c-1.1,0.5-2,1.1-2.7,1.6c0.1,0.9,0.4,2.2,1,3.9c0.5,1.8,0.8,3.4,0.8,5.1c0,0.7-0.2,1.6-0.5,2.7c-0.3,1.1-0.8,2-1.5,2.6
					c-0.9,0.9-1.8,1.5-2.9,2c-1.1,0.5-2.7,0.7-4.9,0.7c-3.2,0-5.6-0.9-7.2-2.6c-1.6-1.7-2.4-4-2.4-6.8c0-2.4,0.8-4.5,2.5-6.5
					c1.7-1.9,3.7-3.5,6.1-4.7c2.4-1.3,5.1-2.3,8.2-3c3.1-0.7,5.9-1.1,8.6-1.1c3.7,0,7,0.2,10,0.7s5.8,1.5,8.2,3.1
					c2.3,1.5,4.2,3.7,5.6,6.5s2.1,6.6,2.1,11.1c0,4.8-0.1,10.6-0.3,17.2c-0.2,6.6-0.3,11-0.3,13.1c0,1.9,0.3,3.4,0.8,4.6
					c0.5,1.1,1.3,1.9,2.3,2.5c0.6,0.3,1.6,0.5,3,0.6c1.4,0.1,2.6,0.1,3.8,0.1L1068.1,169.5L1068.1,169.5z M1040.1,136
					c-2.1,0.8-4.2,1.7-6.3,2.8c-2.1,1-3.8,2.2-5.1,3.3c-1.4,1.2-2.5,2.7-3.3,4.6c-0.8,1.9-1.2,4.1-1.2,6.6c0,3.3,0.7,5.8,2,7.3
					c1.3,1.5,3,2.2,4.9,2.2c2.1,0,3.8-0.5,5.1-1.4c1.3-1,2.5-2.2,3.5-3.6L1040.1,136z">
     </path>
     <path id="Path_1_" class="st0" d="M376.3,108.4l1.5,16.6l-6,1.2c-0.5-4.7-1.8-8.2-4-10.4c-2.2-2.2-5.3-3.3-9.5-3.3
					c-3.3,0-5.9,0.9-7.9,2.6s-3,4-3,6.7c0,3.8,4.7,7.2,14,10.3l0.4,0.1c7,2.3,11.8,4.8,14.3,7.5c2.5,2.7,3.8,6.5,3.8,11.2
					c0,6.3-2.5,11.6-7.5,15.7c-5,4.1-11.5,6.2-19.4,6.2c-3.2,0-6.4-0.3-9.5-1s-6.1-1.7-9-3c0-0.3-0.3-6.4-1.1-18.4l5.5-1.5
					c0.9,5.9,2.6,10.1,5.1,12.7c2.5,2.6,6,3.9,10.5,3.9c3.9,0,6.9-0.9,9.2-2.8c2.3-1.8,3.4-4.3,3.4-7.5c0-3.8-5-7.4-14.9-11
					c-1.6-0.6-2.9-1-3.8-1.3c-4.8-1.8-8.2-3.9-10.3-6.5s-3.1-5.9-3.1-10c0-6.4,2.2-11.5,6.7-15.4s10.5-5.9,18.1-5.9
					c2.2,0,4.7,0.3,7.4,0.8C370.1,106.6,373,107.4,376.3,108.4z">
     </path>
     <path id="Path_2_" class="st0" d="M904.2,108.4l1.5,16.6l-6,1.2c-0.5-4.7-1.8-8.2-4-10.4c-2.2-2.2-5.3-3.3-9.5-3.3
					c-3.3,0-5.9,0.9-7.9,2.6s-3,4-3,6.7c0,3.8,4.7,7.2,14,10.3l0.4,0.1c7,2.3,11.8,4.8,14.3,7.5c2.5,2.7,3.8,6.5,3.8,11.2
					c0,6.3-2.5,11.6-7.5,15.7c-5,4.1-11.5,6.2-19.4,6.2c-3.2,0-6.4-0.3-9.5-1c-3.1-0.7-6.1-1.7-9-3c0-0.3-0.3-6.4-1.1-18.4l5.5-1.5
					c0.9,5.9,2.6,10.1,5.1,12.7c2.5,2.6,6,3.9,10.5,3.9c3.9,0,6.9-0.9,9.2-2.8c2.3-1.8,3.4-4.3,3.4-7.5c0-3.8-5-7.4-14.9-11
					c-1.6-0.6-2.9-1-3.8-1.3c-4.8-1.8-8.2-3.9-10.3-6.5s-3.1-5.9-3.1-10c0-6.4,2.2-11.5,6.7-15.4s10.5-5.9,18.1-5.9
					c2.2,0,4.7,0.3,7.4,0.8C898,106.6,901,107.4,904.2,108.4z">
     </path>
     <path id="Path_3_" class="st0" d="M854.8,170.8h-34v-4.7c0.7-0.1,1.6-0.2,2.6-0.3s1.8-0.3,2.3-0.6c0.8-0.5,1.4-1.2,1.7-2.1
					c0.3-0.9,0.5-2.2,0.5-4V129c0-4.4-0.7-7.7-2.1-9.9c-1.4-2.2-3.5-3.3-6.2-3.3c-1.5,0-2.9,0.3-4.2,0.8c-1.3,0.5-2.6,1.3-3.8,2.3
					c-1.1,0.9-2,1.7-2.6,2.6c-0.7,0.9-1.2,1.7-1.7,2.4v34.5c0,1.5,0.2,2.8,0.6,3.8c0.4,1,1,1.8,1.9,2.3c0.6,0.4,1.4,0.7,2.3,1
					c0.9,0.3,1.8,0.5,2.7,0.6v4.7h-34.3v-4.7c0.9-0.1,1.9-0.2,2.9-0.4s1.8-0.4,2.5-0.6c1.2-0.5,2-1.2,2.5-2.2s0.7-2.3,0.7-3.9
					l-0.3-34.1c0-1.3-0.3-2.6-0.9-3.9c-0.6-1.3-1.4-2.3-2.4-3.2c-0.7-0.5-1.5-0.9-2.6-1.3c-1-0.3-2.2-0.6-3.4-0.7v-4.7
					c10.7-2.2,20.1-4.2,28-6v11.3c1.3-1.1,2.6-2.4,4.1-3.9s2.9-2.7,4.2-3.7c1.4-1,3.2-1.9,5.5-2.6s4.7-1.1,7.2-1.1
					c6.1,0,10.7,2,13.8,6c3.1,4,4.6,9.2,4.6,15.8v31.5c0,1.6,0.2,2.9,0.6,3.8c0.4,0.9,1.2,1.7,2.3,2.3c0.6,0.3,1.3,0.6,2.2,0.9
					c0.9,0.3,1.9,0.5,3,0.6v4.8H854.8z">
     </path>
     <path id="Path_4_" class="st0" d="M1147.7,170.8h-34v-4.7c0.7-0.1,1.6-0.2,2.6-0.3s1.8-0.3,2.3-0.6c0.8-0.5,1.4-1.2,1.7-2.1
					c0.3-0.9,0.5-2.2,0.5-4V129c0-4.4-0.7-7.7-2.1-9.9c-1.4-2.2-3.5-3.3-6.2-3.3c-1.5,0-2.9,0.3-4.2,0.8c-1.3,0.5-2.6,1.3-3.8,2.3
					c-1.1,0.9-2,1.7-2.6,2.6c-0.7,0.9-1.2,1.7-1.7,2.4v34.5c0,1.5,0.2,2.8,0.6,3.8c0.4,1,1,1.8,1.9,2.3c0.6,0.4,1.4,0.7,2.3,1
					s1.8,0.5,2.7,0.6v4.7h-34.3v-4.7c0.9-0.1,1.9-0.2,2.9-0.4s1.8-0.4,2.5-0.6c1.2-0.5,2-1.2,2.5-2.2s0.7-2.3,0.7-3.9l-0.3-34.1
					c0-1.3-0.3-2.6-0.9-3.9c-0.6-1.3-1.4-2.3-2.4-3.2c-0.7-0.5-1.5-0.9-2.6-1.3c-1.1-0.4-2.2-0.6-3.4-0.7v-4.7
					c10.7-2.2,20.1-4.2,28-6v11.3c1.3-1.1,2.6-2.4,4.1-3.9s2.9-2.7,4.2-3.7c1.4-1,3.2-1.9,5.5-2.6c2.3-0.7,4.7-1.1,7.2-1.1
					c6.1,0,10.7,2,13.8,6c3.1,4,4.6,9.2,4.6,15.8v31.5c0,1.6,0.2,2.9,0.6,3.8c0.4,0.9,1.2,1.7,2.3,2.3c0.6,0.3,1.3,0.6,2.2,0.9
					c0.9,0.3,1.9,0.5,3,0.6v4.8H1147.7z">
     </path>
     <path id="Path_5_" class="st0" d="M715.7,170.8h-54.3v-4.6l33.3-55c-4.6,0-8.7,0.1-12.4,0.2c-3.7,0.1-6.6,0.7-8.7,1.6
					c-0.7,0.3-4.8,2.5-6,5.4s-2.2,5.9-2.9,9h-4.1l3.1-22.2h54v4.1l-33.4,55.4c0.9,0,2.3,0,4.1,0.1c1.8,0,3.5,0.1,5.1,0.1
					c1.9,0,3.9-0.1,6.1-0.2s3.8-0.3,5-0.4c1.6-0.2,2.9-0.8,3.8-1.8c0.9-1,1.7-2.2,2.2-3.6c0.5-1.3,1.2-3.2,2-5.8s1.4-4.9,1.9-6.9
					h4.1L715.7,170.8z">
     </path>
     <path id="Combined-Shape_3_" class="st0" d="M307.1,117.7c2.9-4.4,5.3-5.7,7.5-7.8c2.6-2.4,5.4-3.5,8.4-3.5c2.1,0,4,0.8,5.5,2.5
					s2.3,3.6,2.3,6c0,2.2-0.5,3.9-1.5,5.2c-1,1.3-2.3,1.9-3.9,1.9c-0.9,0-2.2-0.3-3.9-1c-1.6-0.7-3-1-3.9-1c-1.8,0-3.5,1.1-5.4,2.2
					c-1.6,0.9-2.8,1.4-5.2,3.1V159c0,1.4,0.3,2.7,0.8,3.7s1.4,1.8,2.4,2.2c0.8,0.4,1.6,0.7,2.5,1s1.8,0.5,2.8,0.6v4.5h-35.7v-4.5
					c1-0.1,1.9-0.2,2.9-0.3s1.7-0.3,2.4-0.6c1.2-0.5,2.1-1.2,2.5-2.1c0.5-0.9,0.7-2.1,0.7-3.7v-35.7c0-1.4-0.3-2.7-0.9-3.8
					c-0.6-1.1-1.4-2-2.3-2.6c-0.7-0.5-1.7-1-3.1-1.4s-2.6-0.7-3.8-0.9v-4.5c12.4-1.4,21.9-3.2,28.5-5.5v12.3H307.1z">
     </path>
     <path id="Combined-Shape_4_" class="st0" d="M273.3,170.8h-35.7v-4.5c1-0.1,1.9-0.2,2.9-0.3c0.9-0.1,1.7-0.3,2.4-0.6
					c1.2-0.5,2.1-1.2,2.5-2.1c0.5-0.9,0.7-2.1,0.7-3.7v-35.7c0-1.4-0.3-2.7-0.9-3.8c-0.6-1.1-1.4-2-2.3-2.6c-0.7-0.5-1.7-1-3.1-1.4
					c-1.4-0.5-2.6-0.7-3.8-0.9v-4.5c12.4-1.4,21.9-3.2,28.5-5.5v53.6c0,1.4,0.3,2.7,0.8,3.7c0.6,1,1.4,1.8,2.4,2.2
					c0.8,0.4,1.6,0.7,2.5,1s1.8,0.5,2.8,0.6v4.5H273.3z M264.6,88c0,2.7-1,4.9-3.1,6.8c-2,1.9-4.5,2.8-7.3,2.8s-5.3-0.9-7.3-2.8
					s-3.1-4.1-3.1-6.8s1-4.9,3.1-6.8c2-1.9,4.5-2.8,7.3-2.8s5.3,0.9,7.3,2.8C263.6,83,264.6,85.3,264.6,88z">
     </path>
     <path id="Combined-Shape_5_" class="st0" d="M566.1,170.8h-35.7v-4.5c1-0.1,1.9-0.2,2.9-0.3c0.9-0.1,1.7-0.3,2.4-0.6
					c1.2-0.5,2.1-1.2,2.5-2.1c0.5-0.9,0.7-2.1,0.7-3.7v-35.7c0-1.4-0.3-2.7-0.9-3.8c-0.6-1.1-1.4-2-2.3-2.6c-0.7-0.5-1.7-1-3.1-1.4
					c-1.4-0.5-2.6-0.7-3.8-0.9v-4.5c12.4-1.4,21.9-3.2,28.5-5.5v53.6c0,1.4,0.3,2.7,0.8,3.7c0.6,1,1.4,1.8,2.4,2.2
					c0.8,0.4,1.6,0.7,2.5,1c0.9,0.3,1.8,0.5,2.8,0.6v4.5H566.1z M557.5,88c0,2.7-1,4.9-3.1,6.8c-2.1,1.9-4.5,2.8-7.3,2.8
					s-5.3-0.9-7.3-2.8s-3.1-4.1-3.1-6.8s1-4.9,3.1-6.8c2-1.9,4.5-2.8,7.3-2.8s5.3,0.9,7.3,2.8C556.5,83,557.5,85.3,557.5,88z">
     </path>
     <path id="Combined-Shape_6_" class="st0" d="M654.8,170.8h-35.7v-4.5c1-0.1,1.9-0.2,2.9-0.3s1.7-0.3,2.4-0.6
					c1.2-0.5,2.1-1.2,2.5-2.1c0.5-0.9,0.7-2.1,0.7-3.7v-35.7c0-1.4-0.3-2.7-0.9-3.8c-0.6-1.1-1.4-2-2.3-2.6c-0.7-0.5-1.7-1-3.1-1.4
					c-1.4-0.4-2.6-0.7-3.8-0.9v-4.5c12.4-1.4,21.9-3.2,28.5-5.5v53.6c0,1.4,0.3,2.7,0.8,3.7c0.6,1,1.4,1.8,2.4,2.2
					c0.8,0.4,1.6,0.7,2.5,1c0.9,0.3,1.8,0.5,2.8,0.6v4.5H654.8z M646.1,88c0,2.7-1,4.9-3.1,6.8c-2,1.9-4.5,2.8-7.3,2.8
					s-5.3-0.9-7.3-2.8s-3.1-4.1-3.1-6.8s1-4.9,3.1-6.8c2-1.9,4.5-2.8,7.3-2.8s5.3,0.9,7.3,2.8C645.1,83,646.1,85.3,646.1,88z">
     </path>
     <path id="Path_6_" class="st0" d="M429.4,168.3c-2.4,1.1-5,2.1-7.7,3c-2.7,0.9-6.1,1.3-10,1.3c-5.9,0-10.2-1.5-13.1-4.5
					c-2.8-3-4.3-7.2-4.3-12.7v-39.9h-11.7l4-6.3h7.9V98.3l18.3-12.7v23.6h12.1v6.3h-12v36c0,4.6,0.6,7.8,1.8,9.7s3.4,2.9,6.6,2.9
					c1,0,2.4-0.1,4.2-0.2s3.1-0.3,3.8-0.5L429.4,168.3L429.4,168.3z">
     </path>
     <path id="Path_7_" class="st0" d="M614.3,168.3c-2.4,1.1-5,2.1-7.7,3s-6.1,1.3-10,1.3c-5.9,0-10.2-1.5-13.1-4.5
					c-2.8-3-4.3-7.2-4.3-12.7v-39.9h-11.7l4-6.3h7.9V98.3l18.3-12.7v23.6h12.1v6.3h-12v36c0,4.6,0.6,7.8,1.8,9.7s3.4,2.9,6.6,2.9
					c1,0,2.4-0.1,4.2-0.2c1.8-0.1,3.1-0.3,3.8-0.5v4.9H614.3z">
     </path>
     <path id="Path_8_" class="st0" d="M232.7,103h-4.3c-1.1-3.6-3-7.4-5.8-11.5s-5.4-6.3-7.9-6.7c-1.1-0.2-2.6-0.3-4.5-0.5
					c-1.9-0.1-3.6-0.2-5.2-0.2h-10.3v36.3h8c2.3,0,11-0.2,12.6-0.7c1.7-0.6,4.1-2.5,6.1-4.3s2.4-4.5,2.6-6.4h4.3v31.3H224
					c-0.2-2-0.2-4.6-2.8-7.5c-2.6-3-4.2-3.2-5.9-3.9s-10.5-1.2-12.9-1.2h-8l0.2,29.4c0,1.6,0.3,2.9,0.8,4s1.5,2,2.9,2.7
					c0.8,0.4,2,0.7,3.4,1.1s2.9,0.6,4.3,0.7v5.1h-43.2v-5.1c1.1-0.1,2.5-0.3,4.3-0.6c1.8-0.2,3.1-0.5,3.8-0.9
					c1.4-0.6,2.3-1.5,2.8-2.5c0.5-1.1,0.8-2.5,0.8-4.2V92.2c0-1.5-0.2-2.8-0.7-3.9s-1.4-2-2.9-2.8c-1.1-0.5-2.4-1-4.2-1.4
					s-3-0.7-4-0.8v-5.1h69.8V103H232.7z">
     </path>
     <path id="Path_9_" class="st0" d="M527.4,80.4c0,0.3,0.5,8.3,1.5,24.2l-6.7,1.1c-0.7-6.5-3.6-11.5-8.5-15.1
					c-5-3.6-11.6-5.4-19.7-5.4c-10.4,0-18.5,3.1-24.2,9.4s-8.6,15.2-8.6,26.7c0,12.4,3.2,22.3,9.7,29.6c6.5,7.4,15.2,11,26,11
					c6.8,0,12.6-1.5,17.5-4.5c4.8-3,8.7-7.6,11.7-13.7l5.9,2.7l-8.1,19.9c-5.4,2.1-10.7,3.8-15.9,4.9s-10.2,1.7-15,1.7
					c-15.6,0-28.3-4.5-37.9-13.5c-9.7-9-14.5-20.7-14.5-35.1c0-14.3,5.1-26,15.2-35.3c10.2-9.3,23-13.9,38.7-13.9
					c5.6,0,11.1,0.4,16.5,1.3C516.5,77.2,521.9,78.5,527.4,80.4z">
     </path>
    </g>
    <g id="Group">
     <linearGradient id="Rectangle_1_" gradientUnits="userSpaceOnUse" x1="-395.9925" y1="-783.2699" x2="-390.726" y2="-777.9205" gradientTransform="matrix(31.592 0 0 31.591 12512.1191 24762.5059)">
      <stop offset="0" style="stop-color:#2B4872">
      </stop>
      <stop offset="0.5222" style="stop-color:#0268B4">
      </stop>
      <stop offset="1" style="stop-color:#0D2E51">
      </stop>
     </linearGradient>
     <rect id="Rectangle" y="17.6" class="st1" width="169" height="169">
     </rect>
     <linearGradient id="Combined-Shape_9_" gradientUnits="userSpaceOnUse" x1="-396.0581" y1="-783.285" x2="-390.7875" y2="-778.0327" gradientTransform="matrix(31.592 0 0 31.591 12512.1191 24762.5059)">
      <stop offset="0" style="stop-color:#B7C5DD">
      </stop>
      <stop offset="1" style="stop-color:#8193B9">
      </stop>
     </linearGradient>
     <path id="Combined-Shape_7_" class="st2" d="M0,17.6h169v169H0V17.6z M7.4,25.3v153.6h154.3V25.3H7.4z">
     </path>
     <linearGradient id="Path-2_1_" gradientUnits="userSpaceOnUse" x1="-395.4164" y1="-781.3206" x2="-390.5211" y2="-781.3206" gradientTransform="matrix(30.6607 0 0 34.2459 12132.1982 26848.627)">
      <stop offset="0" style="stop-color:#D6D7D8">
      </stop>
      <stop offset="0.3063" style="stop-color:#EAEAEB">
      </stop>
      <stop offset="0.4771" style="stop-color:#AAACAF">
      </stop>
      <stop offset="0.6704" style="stop-color:#F4F5F5">
      </stop>
      <stop offset="1" style="stop-color:#D4D6D7">
      </stop>
     </linearGradient>
     <path id="Path-2" class="st3" d="M5,94.3v88.9h40.1v-8.5l34.6-14.4c4.1-2.8,7.3-6,9.6-9.5c3.5-5.3,3.3-10.4,3.5-12.4
					c0.1-1.3,0.2-5.1,0.2-11.3l76-31V0L94.4,29.5c-7.8,2.2-12.7,4.5-14.8,6.7c-3,3.4-7.7,8.8-8.2,13.1c-0.3,2.9-0.4,5.8-0.4,8.9
					c0.6,4.6,0.7,7.4,0.4,8.3s-2.3,2.1-5.9,3.6L5,94.3z">
     </path>
     <linearGradient id="Combined-Shape_10_" gradientUnits="userSpaceOnUse" x1="-394.732" y1="-780.6768" x2="-389.3796" y2="-780.6768" gradientTransform="matrix(28.9588 0 0 31.4221 11436.0742 24629.0547)">
      <stop offset="0" style="stop-color:#A1022B">
      </stop>
      <stop offset="0.2371" style="stop-color:#D3093F">
      </stop>
      <stop offset="0.5308" style="stop-color:#960024">
      </stop>
      <stop offset="0.5829" style="stop-color:#F03152">
      </stop>
      <stop offset="0.6628" style="stop-color:#CB0B3D">
      </stop>
      <stop offset="1" style="stop-color:#C5002A">
      </stop>
     </linearGradient>
     <path id="Combined-Shape_8_" class="st4" d="M5.1,106.5l70.3-29c4.6-3.6,6.9-6.3,7.1-7.9c0.2-1.7,0.2-7.1,0-16.4
					c-0.1-3.5,1.1-6.2,3.5-7.9s5.8-3.4,10.2-5.1l63.7-25.7v29.2L93.8,69.6c-6.6,3.5-10.1,6.1-10.6,7.9s-0.6,6.7-0.3,14.6
					c2.4-2.2,4.8-3.7,7.2-4.5s25.7-10.1,69.7-28v28l-66.1,26.5c-5,1.4-8.1,3.2-9.2,5.3c-1.7,3.2-3.7,7.8-3.7,9.2c0,0.9,0,4.1,0,9.5
					c1,3.9,0,7.3-3.1,10.3c-3.1,2.9-17.6,9.1-43.5,18.6v15.6H4.9v-76.1H5.1z M35.6,122.9v14.6l37.2-14.6c3.7-1.1,6-2.3,6.7-3.6
					c0.7-1.3,1-3.2,1-5.7V103c-1.2,1.6-2.4,2.7-3.7,3.3C75.5,106.8,61.8,112.4,35.6,122.9z">
     </path>
    </g>
   </g>
  </g>
 </g>
</svg>