<svg version="1.1" id="Layer_1" xmlns="http://www.w3.org/2000/svg" xmlns:xlink="http://www.w3.org/1999/xlink" x="0px" y="0px" viewBox="0 0 111.4 48.5" style="enable-background:new 0 0 111.4 48.5;" xml:space="preserve">
 <style type="text/css">
  .st0{fill:#C60C30;}
	.st1{fill:#1E1E1E;}
 </style>
 <g>
  <polygon class="st0" points="0,0 0,48.5 16.5,48.5 16.5,43.4 5.1,43.4 5.1,5.1 16.5,5.1 16.5,0 	">
  </polygon>
  <polygon class="st0" points="111.4,48.5 94.9,48.5 94.9,43.4 106.3,43.4 106.3,5.1 94.9,5.1 94.9,0 111.4,0 	">
  </polygon>
  <path class="st1" d="M41.2,23.9c0-3-0.8-3.9-1.4-4.5c-1-1.1-2.7-1.7-4.4-1.7c-0.7,0-3.6,0.1-5.7,3v-2.5h-6.8V19h2.7v15.6h-1.8h-0.9
		h-1.8V18.1h-6.8V19h2.9v15.6h-2.9v0.9H23h0.9h8.7v-0.9h-2.8v-7.4c0-3.2,0.1-5.7,2.1-7.4c0.8-0.6,1.8-1,2.7-1c0.6,0,2.1,0.2,2.5,1.9
		c0.1,0.4,0.1,0.8,0.2,2.5v11.4h-2.7v0.9H44v-0.9h-2.8V23.9z">
  </path>
  <path class="st1" d="M69.1,34.8c-1,0-1-1-1-2.4v-8.8c0-1.6,0-3-1.2-4.2c-1.1-1-3-1.7-5.1-1.7c-4.3,0-7,2.4-7,4.5c0,1.1,0.7,2,1.9,2
		c1.1,0,1.9-0.9,1.9-1.8c0-1-0.9-1.5-0.9-2c0-0.6,1.6-1.8,3.5-1.8c2.8,0,2.9,2,3,3.2V26c-1.6,0-3.9,0.2-5.8,0.7
		c-2.8,0.9-4.8,2.7-4.8,5.3c0,0.2,0,0.4,0,0.6c-0.2,0.8-0.6,2.2-2.5,2.2C49,34.8,49,33,49,31.7V19h4.5v-0.9H49v-7h-0.6
		c-0.2,0.9-0.5,2.2-2.2,4.1c-1.1,1.3-2.3,2.5-3.9,3.2V19h2.8v10.7c0,2.2,0,3.1,0.3,3.9c0.6,1.7,2.3,2.5,4.4,2.5
		c2.5,0,3.6-1.1,4.2-2.2c0.8,1.4,2.4,2.2,4.3,2.2c2.9,0,4.7-1.6,5.7-3.5c0.1,0.8,0.2,1.9,1.2,2.7c0.6,0.5,1.5,0.8,2.5,0.8
		c1.8,0,2.7-1,3.2-1.4L70.4,34C70.1,34.3,69.7,34.8,69.1,34.8 M64.2,28.2c-0.1,2.2-0.2,3.6-1.5,4.9c-0.4,0.3-1.2,1-2.4,1
		c-1.4,0-2.7-0.9-2.7-3c0-3.5,3.3-4.4,6.6-4.5V28.2z">
  </path>
  <path class="st1" d="M79.5,35.1c-2.2,0-3.3-1.2-3.8-2.6c-0.4-1.2-0.4-2.8-0.4-4.2c0-1.9,0-5.8,0.7-7.4c0.8-2.1,2.6-2.4,3.8-2.4
		c2.3,0,3.3,1.1,3.3,1.4c0,0.2-0.1,0.3-0.2,0.4c-0.3,0.3-0.8,1-0.8,2c0,1.1,0.8,2.2,2,2.2s2.2-1,2.2-2.4c0-2.1-2.4-4.6-6.3-4.6
		c-5,0-9.2,3.9-9.2,9.4c0,5,3.8,9,8.7,9c4.6,0,6.8-3.2,7.4-6.2h-1.1C85.1,32.4,83,35.1,79.5,35.1">
  </path>
  <path class="st1" d="M97.6,32.3c-0.1,0.7-0.4,2.4-2.5,2.4S93,32.9,93,31.6V19h4.5v-0.9H93v-7h-0.6c-0.2,0.9-0.5,2.2-2.2,4.1
		c-1.1,1.3-2.3,2.5-3.9,3.2V19H89v10.7c0,2.2,0,3.1,0.3,3.9c0.6,1.7,2.3,2.5,4.4,2.5c3.9,0,4.5-2.7,4.7-3.8
		C98.4,32.3,97.6,32.3,97.6,32.3z">
  </path>
  <path class="st1" d="M18.8,14.4c1.6,0,2.9-1.3,2.9-2.9s-1.3-2.9-2.9-2.9s-2.9,1.3-2.9,2.9S17.2,14.4,18.8,14.4">
  </path>
  <rect x="27.6" y="43.4" class="st0" width="1.3" height="5.1">
  </rect>
  <polygon class="st0" points="35,48.4 33.1,45.2 33.1,48.4 31.9,48.4 31.9,43.4 33.2,43.4 35.1,46.5 35.1,43.4 36.3,43.4 36.3,48.4 
			">
  </polygon>
  <path class="st0" d="M42.3,44.8c-0.3-0.3-0.9-0.5-1.3-0.5c-0.5,0-0.7,0.1-0.7,0.4c0,0.3,0.3,0.4,0.5,0.4c0.2,0.1,0.8,0.3,0.9,0.3
		c0.1,0.1,0.4,0.2,0.6,0.4c0.2,0.2,0.5,0.5,0.5,1c0,0.6-0.2,0.9-0.6,1.2c-0.3,0.3-0.7,0.5-1.5,0.5c-0.7,0-1.5-0.3-2-0.7l0.6-0.9
		c0.3,0.3,0.9,0.6,1.4,0.6s0.8-0.2,0.8-0.4c0-0.3-0.3-0.4-0.5-0.5s-0.7-0.2-0.8-0.3c-0.1,0-0.4-0.2-0.7-0.4
		c-0.2-0.2-0.5-0.5-0.5-1.1s0.3-1,0.6-1.2s0.7-0.4,1.3-0.4c0.8,0,1.5,0.4,1.8,0.7L42.3,44.8z">
  </path>
  <path class="st0" d="M48.4,43.4h1.3v3.1c0,0.7-0.1,1.2-0.5,1.5c-0.4,0.4-0.9,0.6-1.6,0.6c-0.8,0-1.3-0.2-1.6-0.6
		c-0.3-0.4-0.5-0.8-0.5-1.5v-3.1h1.3v3.1c0,0.4,0.1,0.5,0.2,0.7c0.1,0.2,0.4,0.2,0.7,0.2s0.5-0.1,0.7-0.2c0.1-0.2,0.2-0.3,0.2-0.7
		v-3.1H48.4z">
  </path>
  <path class="st0" d="M55.4,48.5l-1-1.9h-0.5v1.9h-1.3v-5.1h2c0.5,0,1,0.1,1.4,0.3c0.3,0.2,0.6,0.7,0.6,1.2c0,0.7-0.3,1.2-1,1.4
		l1.3,2.1L55.4,48.5L55.4,48.5z M55,44.5c-0.1-0.1-0.3-0.1-0.5-0.1h-0.6v1.3h0.6c0.2,0,0.4,0,0.5-0.1s0.2-0.3,0.2-0.5
		C55.3,44.8,55.2,44.6,55,44.5">
  </path>
  <path class="st0" d="M62.4,48.4l-0.3-1h-1.8l-0.3,1h-1.3l1.7-5.1H62l1.7,5.1H62.4z M61.2,44.6l-0.6,1.9h1.2L61.2,44.6z">
  </path>
  <polygon class="st0" points="69.3,48.4 67.3,45.2 67.3,48.4 66.1,48.4 66.1,43.4 67.5,43.4 69.3,46.5 69.3,43.4 70.5,43.4 
		70.5,48.4 	">
  </polygon>
  <path class="st0" d="M77.6,47.7c0,0-0.5,0.9-1.9,0.9s-2.5-0.9-2.5-2.6c0-1.7,1.2-2.6,2.5-2.6s1.9,0.8,1.9,0.9L77,45
		c0,0-0.4-0.6-1.2-0.6c-0.8,0-1.3,0.6-1.3,1.5s0.5,1.5,1.3,1.5s1.2-0.6,1.2-0.6L77.6,47.7z">
  </path>
  <polygon class="st0" points="80.3,48.4 80.3,43.4 83.7,43.4 83.7,44.3 81.5,44.3 81.5,45.3 83.5,45.3 83.5,46.3 81.5,46.3 
		81.5,47.4 83.8,47.4 83.8,48.4 	">
  </polygon>
 </g>
</svg>