<svg enable-background="new 0 0 85.58 46.38" height="232.597426" viewBox="0 0 85.58 46.38" width="429.927372" xmlns="http://www.w3.org/2000/svg"><g fill="none"><path d="m23.74 34.77h2.51v11.61h-2.51z"/><path d="m37.63 0h2.51v11.61h-2.51z"/><path d="m0 31.89h11.61v2.51h-11.61z"/><path d="m73.97 32.07h11.61v2.51h-11.61z"/><path d="m23.74 34.77h2.51v11.61h-2.51z"/><path d="m37.63 0h2.51v11.61h-2.51z"/><path d="m0 31.89h11.61v2.51h-11.61z"/><path d="m73.97 32.07h11.61v2.51h-11.61z"/></g><path d="m71.26 30.2c1.21-.67 2.03-1.92 2.03-3.36 0-2.14-1.8-3.87-4.02-3.87h-4.61v11.61h2.51v-3.88h1.66l2.4 3.88h2.73zm-1.8-1.83h-2.28v-3.07h2.28c.75 0 1.35.69 1.35 1.54s-.61 1.53-1.35 1.53zm-14.57 6.21h7.76v-2.33h-5.25v-2.31h4.88v-2.33h-4.88v-2.31h5.25v-2.33h-7.76zm-9.95-9.28h3.07v9.28h2.51v-9.28h3.07v-2.33h-8.66v2.33zm-3.94 9.28h2.51v-11.61h-2.51zm-5.66-11.61h-4.61v11.61h2.51v-3.88h2.1c2.22 0 4.02-1.73 4.02-3.87s-1.8-3.86-4.02-3.86zm.18 5.4h-2.28v-3.07h2.28c.75 0 1.35.69 1.35 1.54s-.6 1.53-1.35 1.53zm-9.46 1.44c0 1.34-1.04 2.44-2.32 2.44s-2.32-1.09-2.32-2.44v-6.84h-2.52v6.96c0 2.67 2.17 4.84 4.84 4.84s4.84-2.17 4.84-4.84v-6.96h-2.52zm-11.65 1.46c0 1.05-1.03 1.45-1.78 1.03l-1.03 2.1c2.16.99 5.37.04 5.37-3.3v-8.14h-2.56z" fill="#10283f"/><path d="m37.97 16.41c-.15-.07-.37-.26-.67-.33-.22-.05-2.76-.76-2.39-.59.33.16 1.36.54 1.91.7 2.64.76 1.39.33 1.15.22zm-4.35 1.42c-.35-.2-.47-.13-.71-.16-.08-.01-.27-.05-.29-.04-.09.03.28.17.34.18.72.18.22.18 1.23.36.15.03.93.32 1.08.32.17-.01-.59-.25-.69-.34-.19-.16-.7-.18-.96-.32zm1.07.99c.05.03.09.08.15.11.11.06.45.12.67.18.96.26.81.33 1.74.44.13.02.23.05.25.04.17-.05-3.64-1.22-3.64-1.21-.07.03.57.26.83.44zm6.76 2.33c-.24-.11-.43-.22-.43-.22-.27-.12-.55-.02-1.09-.18 0 0-2.13-.7-1.78-.49.12.08-.1-.06 1.44.52.22.08-.09.07.13.14.65.21.91.08 1.13.2.46.26.85.13.6.03zm-10.9 0h.6c-.15-.09-.44-.35-.73-.37.04.13.08.25.13.37zm1.45-1.02c.1-.17 2.41.89 2.7.75.09-.04-.6-.19-1.12-.37-1.83-.65-2.82-1.02-3.46-1.25.03.34.08.67.16 1 .18.02.89.13 1.59.47.27.13.36.07.98.3.42.16.27.26 2.11.26.7 0-.33-.09-1.4-.54-.65-.29-1.6-.55-1.56-.62zm4.82-8.51c.22.04.68.25.78.28.32.1.43 0 .88.21.47.22 1 .33 1.47.54.53.24 1.13.71 1.03.75-.01 0-.94-.2-1.44-.35-1.71-.51-1.64-.64-2.72-.96-.59-.18-.88-.23-.87-.17-.02.16 1.21.4 2.08.94.18.18 1.93.7 2.47.79.91.15.93.27.63.28-.98.04-1.83-.41-2.74-.56-.3-.05-.63-.12-.66-.04 0 .05.38.13.46.16 2.38.89 2.11 1.06 3.2 1.56.78.36.94.67.81.61-1.6-.76-1.97-.48-3.06-1.22-1.39-.95-1.18-.67-2.31-.95-.75-.18-1.46-.55-2.22-.63-.72-.08.17-.28 1.64-.03.6.1.59.07.74.11.08.02.24.07.31.07.12-.01-.06-.11-.08-.13-.09-.05-.19-.07-.28-.11-1.63-.68-1.92-.4-1.86-.58.03-.09.64-.04.76-.08.09-.04-.17-.12-.22-.15-.08-.03-.08-.1-.16-.14-.76.19-1.48.5-2.12.91 1.21.41 5.12 1.35 5.19 1.65.01.05-4.22-1.05-5.38-1.52-.15.1-.3.21-.44.33 1.13.53 10.26 2.99 9.76 3.02-1.2.08-3.71-1.02-6.02-1.43-1.22-.22-1.38-.33 3.27 1.11 1.41.44 3.25 1.2 3.16 1.32-.05.07-3.16-1.08-7.47-2.2-.58-.15-1.14-.39-1.72-.57-.53-.16-1.15-.36-1.52-.77-.19.19-.38.4-.55.61.21.07.53.01.63.03.31.05.15.2.88.19s8.91 2.76 9.4 3.11c.13.09.49.38.56.5.12.2-.19-.05-4.27-1.22-.58-.17-1.18-.27-1.76-.43-.57-.16-1.12-.38-1.69-.53-.3-.08-.62-.11-.92-.2-.23-.07-.44-.2-.68-.26-2.36-.65-2.27-.64-2.27-.61-.01.25 2.28.76 6.66 2.13.45.14.89.34 1.33.48 1.5.49-1.36 0-2.38-.29 0 0-1-.3-2.07-.54-.94-.21-.84.1-2.44-.5-.4-.15-.84-.28-1.48-.12-.05.01-.12.03-.03.07.08.04.17.02.44.01.42-.02.54.05.9.28.57.35.9.29 1.67.47 1.22.27 1.64.76 4.34 1.65.92.31 2.21.68 3.41 1.27-.9.14-1.86-.55-3.27-.81-.13-.02-.2-.09-.31-.17-.16-.12-.47-.16-.48-.17-1.02-.22-.89-.11-.85-.1 1.29.26 1.08.31 1.35.48s.43.06 1.38.5c.1.04.09.11-.04.11-.05 0-.61-.07-.61-.07-.23-.03-.72-.05-1.26-.33-.06-.03-1.73-.8-1.8-.71-.05.06.27.11.62.3.2.1.39.22.59.33.16.09.35.16.5.26 1.6 1.01 1.32.25 2.28.92.32.22.8.24 1.42.55.74.38-.06.3 2.36.3 1.8-4.75-1.87-9.78-6.91-9.54zm2.52 9.3c-.51-.17-.67-.26-1.34-.47 0 0-7.02-1.92-7.88-2.39 0 0-.03.32-.03.6 0 .25 9.14 3.13 8.91 3.17-.25.05-.57-.11-.87.02.51.49.87-.12 1.55.34.12.08.56.03.33-.07-1.18-.52.17-.12-2.67-1.13-.79-.28-.98-.35-.7-.3 3.3.69 2.79.97 3.77.93.22-.01.63-.12.46-.2-.15-.07-1.08-.35-1.53-.5z" fill="#e97414"/></svg>